<mxfile host="app.diagrams.net" modified="2024-01-09T08:11:21.990Z" agent="Mozilla/5.0 (Windows NT 10.0; Win64; x64) AppleWebKit/537.36 (KHTML, like Gecko) Chrome/120.0.0.0 Safari/537.36 Edg/120.0.0.0" etag="JE_xo3uReO0hr3gdl67l" version="22.1.16" type="github">
  <diagram name="ページ1" id="IJRU0Sit2d09EKt1Dg38">
    <mxGraphModel dx="242" dy="134" grid="1" gridSize="10" guides="1" tooltips="1" connect="1" arrows="1" fold="1" page="1" pageScale="1" pageWidth="827" pageHeight="1169" math="0" shadow="0">
      <root>
        <mxCell id="0" />
        <mxCell id="1" parent="0" />
        <mxCell id="bYI_Bjf83IYMnO6PkBGH-1" value="" style="rounded=0;whiteSpace=wrap;html=1;" vertex="1" parent="1">
          <mxGeometry x="40" y="160" width="220" height="310" as="geometry" />
        </mxCell>
        <mxCell id="bYI_Bjf83IYMnO6PkBGH-2" value="&amp;nbsp; Docker HUB" style="text;html=1;strokeColor=none;fillColor=#000000;align=left;verticalAlign=middle;whiteSpace=wrap;rounded=0;fontSize=12;fontStyle=0;fontColor=#FFFFFF;" vertex="1" parent="1">
          <mxGeometry x="40" y="160" width="220" height="20" as="geometry" />
        </mxCell>
        <mxCell id="bYI_Bjf83IYMnO6PkBGH-10" value="ユーザからの入力を処理し、Modelと&lt;br&gt;Viewを制御する役割を持ちます。" style="text;html=1;strokeColor=none;fillColor=none;align=left;verticalAlign=middle;whiteSpace=wrap;rounded=0;" vertex="1" parent="1">
          <mxGeometry x="53.75" y="182.5" width="206.25" height="30" as="geometry" />
        </mxCell>
        <mxCell id="bYI_Bjf83IYMnO6PkBGH-11" value="" style="rounded=0;whiteSpace=wrap;html=1;" vertex="1" parent="1">
          <mxGeometry x="300" y="160" width="500" height="220.5" as="geometry" />
        </mxCell>
        <mxCell id="bYI_Bjf83IYMnO6PkBGH-12" value="&amp;nbsp; Docker HUB" style="text;html=1;strokeColor=none;fillColor=#000000;align=left;verticalAlign=middle;whiteSpace=wrap;rounded=0;fontSize=12;fontStyle=0;fontColor=#FFFFFF;" vertex="1" parent="1">
          <mxGeometry x="300" y="160" width="220" height="20" as="geometry" />
        </mxCell>
        <mxCell id="bYI_Bjf83IYMnO6PkBGH-13" value="" style="rounded=0;whiteSpace=wrap;html=1;strokeColor=#ff8000;" vertex="1" parent="1">
          <mxGeometry x="320" y="215.5" width="170" height="60" as="geometry" />
        </mxCell>
        <mxCell id="bYI_Bjf83IYMnO6PkBGH-14" value="&amp;nbsp; ユーザからの入力を処理し、&lt;br&gt;&amp;nbsp; ModelとViewを制御します。" style="text;html=1;strokeColor=none;fillColor=none;align=left;verticalAlign=top;whiteSpace=wrap;rounded=0;" vertex="1" parent="1">
          <mxGeometry x="320" y="235.5" width="170" height="40" as="geometry" />
        </mxCell>
        <mxCell id="bYI_Bjf83IYMnO6PkBGH-15" value="&amp;nbsp; urls.py" style="text;html=1;strokeColor=none;fillColor=#FF8000;align=left;verticalAlign=middle;whiteSpace=wrap;rounded=0;fontSize=12;fontStyle=0" vertex="1" parent="1">
          <mxGeometry x="320" y="215.5" width="170" height="20" as="geometry" />
        </mxCell>
        <mxCell id="bYI_Bjf83IYMnO6PkBGH-16" value="" style="rounded=0;whiteSpace=wrap;html=1;strokeColor=#ff8000;" vertex="1" parent="1">
          <mxGeometry x="320" y="305.75" width="170" height="60" as="geometry" />
        </mxCell>
        <mxCell id="bYI_Bjf83IYMnO6PkBGH-17" value="&amp;nbsp; views.py" style="text;html=1;strokeColor=none;fillColor=#FF8000;align=left;verticalAlign=middle;whiteSpace=wrap;rounded=0;fontSize=12;fontStyle=0" vertex="1" parent="1">
          <mxGeometry x="320" y="305.75" width="170" height="20" as="geometry" />
        </mxCell>
        <mxCell id="bYI_Bjf83IYMnO6PkBGH-18" value="&amp;nbsp; ユーザからの入力を処理し、&lt;br&gt;&amp;nbsp; ModelとViewを制御します。" style="text;html=1;strokeColor=none;fillColor=none;align=left;verticalAlign=top;whiteSpace=wrap;rounded=0;" vertex="1" parent="1">
          <mxGeometry x="320" y="325.75" width="170" height="40" as="geometry" />
        </mxCell>
        <mxCell id="bYI_Bjf83IYMnO6PkBGH-19" value="" style="endArrow=classic;html=1;rounded=0;strokeWidth=1;entryX=0.5;entryY=0;entryDx=0;entryDy=0;exitX=0.5;exitY=1;exitDx=0;exitDy=0;strokeColor=#4D4D4D;" edge="1" source="bYI_Bjf83IYMnO6PkBGH-14" target="bYI_Bjf83IYMnO6PkBGH-17" parent="1">
          <mxGeometry width="50" height="50" relative="1" as="geometry">
            <mxPoint x="198" y="346.5" as="sourcePoint" />
            <mxPoint x="320" y="345.5" as="targetPoint" />
          </mxGeometry>
        </mxCell>
        <mxCell id="bYI_Bjf83IYMnO6PkBGH-20" value="ユーザからの入力を処理し、Modelと&lt;br&gt;Viewを制御する役割を持ちます。" style="text;html=1;strokeColor=none;fillColor=none;align=left;verticalAlign=middle;whiteSpace=wrap;rounded=0;" vertex="1" parent="1">
          <mxGeometry x="313.75" y="182.5" width="206.25" height="30" as="geometry" />
        </mxCell>
        <mxCell id="bYI_Bjf83IYMnO6PkBGH-42" value="" style="group" vertex="1" connectable="0" parent="1">
          <mxGeometry x="50" y="222" width="60" height="67" as="geometry" />
        </mxCell>
        <mxCell id="bYI_Bjf83IYMnO6PkBGH-22" value="" style="rounded=1;whiteSpace=wrap;html=1;fillColor=#66B2FF;glass=1;" vertex="1" parent="bYI_Bjf83IYMnO6PkBGH-42">
          <mxGeometry width="60" height="62" as="geometry" />
        </mxCell>
        <mxCell id="bYI_Bjf83IYMnO6PkBGH-31" value="" style="shape=image;html=1;verticalAlign=top;verticalLabelPosition=bottom;labelBackgroundColor=#ffffff;imageAspect=0;aspect=fixed;image=https://cdn4.iconfinder.com/data/icons/logos-brands-5/24/postgresql-512.png;" vertex="1" parent="bYI_Bjf83IYMnO6PkBGH-42">
          <mxGeometry x="9" y="4" width="42" height="42" as="geometry" />
        </mxCell>
        <mxCell id="bYI_Bjf83IYMnO6PkBGH-39" value="PostgreSQL" style="text;html=1;strokeColor=none;fillColor=none;align=center;verticalAlign=middle;whiteSpace=wrap;rounded=0;fontSize=9;fontStyle=1" vertex="1" parent="bYI_Bjf83IYMnO6PkBGH-42">
          <mxGeometry y="37" width="60" height="30" as="geometry" />
        </mxCell>
        <mxCell id="bYI_Bjf83IYMnO6PkBGH-43" value="" style="group;fontStyle=1" vertex="1" connectable="0" parent="1">
          <mxGeometry x="50" y="300" width="60" height="67" as="geometry" />
        </mxCell>
        <mxCell id="bYI_Bjf83IYMnO6PkBGH-29" value="" style="rounded=1;whiteSpace=wrap;html=1;fillColor=#66B2FF;glass=1;" vertex="1" parent="bYI_Bjf83IYMnO6PkBGH-43">
          <mxGeometry width="60" height="62" as="geometry" />
        </mxCell>
        <mxCell id="bYI_Bjf83IYMnO6PkBGH-44" value="" style="group" vertex="1" connectable="0" parent="1">
          <mxGeometry x="50" y="380" width="60" height="67" as="geometry" />
        </mxCell>
        <mxCell id="bYI_Bjf83IYMnO6PkBGH-37" value="" style="rounded=1;whiteSpace=wrap;html=1;fillColor=#66B2FF;glass=1;" vertex="1" parent="bYI_Bjf83IYMnO6PkBGH-44">
          <mxGeometry width="60" height="62" as="geometry" />
        </mxCell>
        <mxCell id="bYI_Bjf83IYMnO6PkBGH-38" value="" style="shape=image;html=1;verticalAlign=top;verticalLabelPosition=bottom;labelBackgroundColor=#ffffff;imageAspect=0;aspect=fixed;image=https://cdn4.iconfinder.com/data/icons/logos-brands-5/24/nginx-512.png" vertex="1" parent="bYI_Bjf83IYMnO6PkBGH-44">
          <mxGeometry x="9" y="4" width="42" height="42" as="geometry" />
        </mxCell>
        <mxCell id="bYI_Bjf83IYMnO6PkBGH-41" value="NGINX" style="text;html=1;strokeColor=none;fillColor=none;align=center;verticalAlign=middle;whiteSpace=wrap;rounded=0;fontSize=9;fontStyle=1" vertex="1" parent="bYI_Bjf83IYMnO6PkBGH-44">
          <mxGeometry y="37" width="60" height="30" as="geometry" />
        </mxCell>
        <mxCell id="bYI_Bjf83IYMnO6PkBGH-32" value="" style="shape=image;html=1;verticalAlign=top;verticalLabelPosition=bottom;labelBackgroundColor=#ffffff;imageAspect=0;aspect=fixed;image=https://cdn1.iconfinder.com/data/icons/ionicons-fill-vol-2/512/logo-docker-128.png" vertex="1" parent="1">
          <mxGeometry x="363" y="460" width="42" height="42" as="geometry" />
        </mxCell>
        <mxCell id="bYI_Bjf83IYMnO6PkBGH-40" value="Docker" style="text;html=1;strokeColor=none;fillColor=none;align=center;verticalAlign=middle;whiteSpace=wrap;rounded=0;fontSize=9;fontStyle=1" vertex="1" parent="1">
          <mxGeometry x="354" y="493" width="60" height="30" as="geometry" />
        </mxCell>
        <mxCell id="bYI_Bjf83IYMnO6PkBGH-47" style="edgeStyle=orthogonalEdgeStyle;rounded=0;orthogonalLoop=1;jettySize=auto;html=1;exitX=1;exitY=0.5;exitDx=0;exitDy=0;" edge="1" parent="1" source="bYI_Bjf83IYMnO6PkBGH-32" target="bYI_Bjf83IYMnO6PkBGH-40">
          <mxGeometry relative="1" as="geometry" />
        </mxCell>
        <mxCell id="bYI_Bjf83IYMnO6PkBGH-50" value="" style="rounded=0;whiteSpace=wrap;html=1;" vertex="1" parent="1">
          <mxGeometry x="560" y="400" width="40" height="60" as="geometry" />
        </mxCell>
      </root>
    </mxGraphModel>
  </diagram>
</mxfile>
